<?xml version="1.0" encoding="UTF-8"?>
<!DOCTYPE svg PUBLIC "-//W3C//DTD SVG 1.1//EN" "http://www.w3.org/Graphics/SVG/1.1/DTD/svg11.dtd">
<!-- Creator: CorelDRAW X6 -->
<svg xmlns="http://www.w3.org/2000/svg" xml:space="preserve" width="55.5556in" height="55.5556in" version="1.1" style="shape-rendering:geometricPrecision; text-rendering:geometricPrecision; image-rendering:optimizeQuality; fill-rule:evenodd; clip-rule:evenodd"
viewBox="0 0 55556 55556"
 xmlns:xlink="http://www.w3.org/1999/xlink">
 <defs>
  <style type="text/css">
   <![CDATA[
    .fil2 {fill:none;fill-rule:nonzero}
    .fil3 {fill:white;fill-rule:nonzero}
    .fil1 {fill:url(#id0);fill-rule:nonzero}
    .fil0 {fill:url(#id1);fill-rule:nonzero}
   ]]>
  </style>
  <linearGradient id="id0" gradientUnits="userSpaceOnUse" x1="13573" y1="31726.4" x2="49869.4" y2="31726.4">
   <stop offset="0" style="stop-color:#FF06F5"/>
   <stop offset="1" style="stop-color:#FF1C08"/>
  </linearGradient>
  <linearGradient id="id1" gradientUnits="userSpaceOnUse" x1="27769.6" y1="47895.8" x2="27769.6" y2="7659.72">
   <stop offset="0" style="stop-color:#0000E3"/>
   <stop offset="1" style="stop-color:#3944FF"/>
  </linearGradient>
 </defs>
 <g id="__x0023_Layer_x0020_1">
  <metadata id="CorelCorpID_0Corel-Layer"/>
  <g id="_166112496">
   <path class="fil0" d="M47868 27778c0,11110 -9000,20118 -20120,20118 -11080,0 -20077,-9008 -20077,-20118 0,-11080 8997,-20118 20077,-20118 11120,0 20120,9038 20120,20118z"/>
   <path class="fil1" d="M41988 13595c7882,7787 7882,20542 0,28391 -7873,7873 -20570,7873 -28415,0l28415 -28391z"/>
   <g>
    <path class="fil2" d="M47877 27778c0,4153 -1214,7942 -3367,11173 -70,66 -101,122 -142,221 -445,604 -943,1265 -1474,1804 -509,624 -1081,1213 -1669,1733 -3588,3237 -8281,5155 -13491,5155 -11084,0 -20103,-8964 -20103,-20087 0,-3770 1043,-7291 2861,-10374 597,-981 1272,-1885 2063,-2767 171,-174 356,-412 546,-558 445,-533 867,-999 1384,-1406 3549,-3122 8191,-5004 13250,-5004 11120,0 20144,9025 20144,20109z"/>
   </g>
   <g>
    <path class="fil3" d="M14870 16519l0 18c740,-410 942,-1086 942,-1818 0,-1144 -535,-1776 -1329,-2047 -517,406 -939,872 -1384,1406 419,18 726,190 726,784 0,981 -427,983 -1272,981l0 -1207c-790,883 -1465,1787 -2063,2767l0 3673 2910 0c1576,0 2548,-769 2548,-2478 0,-1026 -134,-1521 -1078,-2079zm-2317 3030l0 0 0 -2137c864,16 1408,29 1408,1034 0,1165 -456,1096 -1408,1103z"/>
    <path class="fil3" d="M16902 12492l1955 0 0 6487c0,438 177,739 748,739 504,0 682,-410 682,-764l0 -6462 1976 0 0 6245c0,1434 -618,2536 -2709,2536 -1708,0 -2652,-783 -2652,-2536l0 -6245z"/>
    <polygon class="fil3" points="25917,15287 25985,15287 26965,12492 28954,12492 26943,17456 26943,21080 24872,21080 24872,17456 22866,12492 24923,12492 "/>
   </g>
   <g>
    <polygon class="fil3" points="22171,42723 22171,34093 26892,34093 26892,35867 24221,35867 24221,37389 26674,37389 26674,39089 24221,39089 24221,42723 "/>
    <path class="fil3" d="M29820 42723l-1989 0 0 -8630 2907 0c1686,0 2481,693 2481,2385 0,952 -236,1612 -1051,1975l0 23c588,114 941,529 978,1130 77,678 73,2168 200,2715 39,94 110,218 176,297l0 105 -2162 0c-56,-152 -110,-298 -126,-508 -37,-757 17,-1466 -39,-1958 -70,-569 -236,-911 -663,-943l-711 0 0 3409zm0 -4949l0 0 663 0c621,0 767,-506 767,-1046 0,-1048 -455,-1095 -1430,-1072l0 2118z"/>
    <polygon class="fil3" points="34265,42723 34265,34093 38866,34093 38866,35867 36233,35867 36233,37427 38797,37427 38797,39144 36233,39144 36233,41023 38999,41023 38999,42723 "/>
    <path class="fil3" d="M44565 35839l0 -1738 -4590 0 0 8609 1249 0c588,-520 1160,-1109 1669,-1733l-913 0 0 -1804 2387 0c41,-98 72,-155 142,-221l0 -1524 -2529 0 0 -1588 2584 0z"/>
   </g>
   <g>
    <polygon class="fil3" points="19071,23299 24290,23299 24290,24976 22637,24976 22637,31868 20625,31868 20625,24976 19071,24976 "/>
    <path class="fil3" d="M23956 31868l1925 -8569 2441 0 1826 8569 -2009 0 -309 -1624 -1531 0 -256 1624 -2088 0zm3104 -7024l0 0 14 0 -621 3860 1208 0 -601 -3860z"/>
    <polygon class="fil3" points="33475,25892 33508,25892 34410,23299 36432,23299 34649,27617 36506,31868 34486,31868 33528,29330 33508,29330 32368,31868 30390,31868 32351,27617 30499,23299 32553,23299 "/>
   </g>
  </g>
 </g>
</svg>
