<?xml version="1.0" encoding="utf-8"?>
<!-- Generator: Adobe Illustrator 21.1.0, SVG Export Plug-In . SVG Version: 6.00 Build 0)  -->
<svg version="1.1" id="Layer_1" xmlns="http://www.w3.org/2000/svg" xmlns:xlink="http://www.w3.org/1999/xlink" x="0px" y="0px"
	 viewBox="0 0 71 71" style="enable-background:new 0 0 71 71;" xml:space="preserve">
<style type="text/css">
	.st0{fill:url(#SVGID_1_);}
	.st1{fill:url(#SVGID_2_);}
	.st2{fill:none;}
	.st3{fill:#FFFFFF;}
</style>
<g>
	<linearGradient id="SVGID_1_" gradientUnits="userSpaceOnUse" x1="35.4894" y1="70.9894" x2="35.4894" y2="1.059016e-02">
		<stop  offset="0" style="stop-color:#000058"/>
		<stop  offset="1" style="stop-color:#0F97FF"/>
	</linearGradient>
	<circle class="st0" cx="35.5" cy="35.5" r="35.5"/>
	<linearGradient id="SVGID_2_" gradientUnits="userSpaceOnUse" x1="10.4158" y1="40.6877" x2="71" y2="40.6877">
		<stop  offset="0" style="stop-color:#FF161B"/>
		<stop  offset="1" style="stop-color:#FF6741"/>
	</linearGradient>
	<path class="st1" d="M60.6,10.4c13.9,13.9,13.9,36.3,0,50.2s-36.3,13.9-50.2,0L60.6,10.4z"/>
	<path class="st2" d="M71,35.5c0,7.3-2.2,14.1-6,19.7c-0.1,0.1-0.2,0.3-0.3,0.4c-0.8,1.1-1.6,2.2-2.5,3.3c-0.9,1.1-1.9,2.1-3,3
		C52.9,67.5,44.6,71,35.5,71C15.9,71,0,55.1,0,35.5c0-6.7,1.8-12.9,5-18.2c1-1.7,2.2-3.4,3.6-4.9c0.3-0.4,0.6-0.7,1-1.1
		c0.8-0.8,1.6-1.7,2.5-2.4C18.3,3.4,26.5,0,35.5,0C55.1,0,71,15.9,71,35.5z"/>
	<g>
		<path class="st3" d="M12.7,15.7L12.7,15.7c1.2-0.7,1.7-1.9,1.7-3.2c0-2.1-1-3.1-2.4-3.6c-0.9,0.8-1.7,1.6-2.5,2.4
			c0.8,0.1,1.3,0.3,1.3,1.4c0,1.8-0.7,1.7-2.3,1.8v-2.1c-1.3,1.5-2.5,3.2-3.6,4.9v6.4h5c2.9,0,4.6-1.3,4.6-4.4
			C14.7,17.4,14.3,16.6,12.7,15.7z M8.6,21v-3.7c1.5,0.1,2.5,0,2.5,1.8C11.1,21,10.4,20.9,8.6,21z"/>
		<path class="st3" d="M16.2,8.5h3.6V20c0,0.7,0.2,1.4,1.2,1.4c0.9,0,1.2-0.8,1.2-1.5V8.5h3.6v11c0,2.6-1.2,4.6-4.8,4.6
			c-3,0-4.8-1.4-4.8-4.6V8.5z"/>
		<path class="st3" d="M32.2,13.5L32.2,13.5l1.9-5h3.6L34,17.3v6.4h-3.6v-6.4l-3.6-8.8h3.6L32.2,13.5z"/>
	</g>
	<g>
		<path class="st3" d="M25.6,61.9V46.7H34v3h-4.8v2.7h4.4v3h-4.4v6.4H25.6z"/>
		<path class="st3" d="M39.1,61.9h-3.6V46.7h5.2c2.9,0,4.4,1.2,4.4,4.2c0,1.6-0.4,2.8-1.9,3.5v0c1,0.2,1.7,0.9,1.8,2
			c0.1,1.2,0.1,3.8,0.3,4.8c0.1,0.2,0.2,0.4,0.3,0.5v0.2h-3.9c-0.1-0.3-0.2-0.6-0.2-0.9c-0.1-1.3,0-2.6-0.1-3.5
			c-0.1-0.9-0.4-1.5-1.2-1.6h-1.2V61.9z M39.1,53.2h1.2c1,0,1.3-1,1.3-1.9c0-1.8-0.7-1.9-2.5-1.8V53.2z"/>
		<path class="st3" d="M46.9,61.9V46.7h8.1v3h-4.6v2.8h4.4v3h-4.4v3.3h4.8v3H46.9z"/>
		<path class="st3" d="M65.2,49.7v-3H57v15.2h2.2c1.1-1,2.1-2,3-3h-1.6v-3.3h4.2c0.1-0.1,0.2-0.3,0.3-0.4v-2.6h-4.4v-2.8H65.2z"/>
	</g>
	<g>
		<path class="st3" d="M20.1,27.6h9.2v3h-2.9v12.1h-3.6V30.6h-2.8V27.6z"/>
		<path class="st3" d="M28.8,42.8l3.3-15.2h4.3l3.3,15.2h-3.6l-0.5-3h-2.8l-0.4,3H28.8z M34.3,30.3L34.3,30.3l-1.1,6.8h2.1
			L34.3,30.3z"/>
		<path class="st3" d="M45.5,32.2L45.5,32.2l1.7-4.6h3.6l-3.2,7.6l3.3,7.6h-3.6l-1.7-4.5h0l-2,4.5h-3.4l3.4-7.6l-3.2-7.6h3.5
			L45.5,32.2z"/>
	</g>
</g>
</svg>
